<?xml version="1.0" encoding="UTF-8"?>
<svg width="63px" height="31px" viewBox="0 0 63 31" version="1.1" xmlns="http://www.w3.org/2000/svg" xmlns:xlink="http://www.w3.org/1999/xlink">
    <!-- Generator: Sketch 46.2 (44496) - http://www.bohemiancoding.com/sketch -->
    <title>Artboard 5</title>
    <desc>Created with Sketch.</desc>
    <defs>
        <linearGradient x1="50%" y1="0%" x2="50%" y2="100%" id="linearGradient-1">
            <stop stop-color="#CC1000" offset="0%"></stop>
            <stop stop-color="#B90D00" offset="100%"></stop>
        </linearGradient>
        <path d="M2,-2.46073236e-15 L29,5.43185288e-17 L29,4.4408921e-16 C30.1045695,-1.720927e-15 31,0.8954305 31,2 L31,29 L31,29 C31,30.1045695 30.1045695,31 29,31 L2,31 L2,31 C0.8954305,31 5.7935996e-16,30.1045695 4.4408921e-16,29 L0,2 L-2.22044605e-16,2 C-3.57315355e-16,0.8954305 0.8954305,-1.5734484e-15 2,-1.77635684e-15 Z" id="path-2"></path>
        <text id="text-3" font-family="FontAwesome" font-size="25" font-weight="normal" letter-spacing="-0.2617521" fill="#FFFFFF">
            <tspan x="6" y="24"></tspan>
        </text>
        <filter x="-2.5%" y="-6.0%" width="105.0%" height="108.0%" filterUnits="objectBoundingBox" id="filter-4">
            <feOffset dx="0" dy="-1" in="SourceAlpha" result="shadowOffsetOuter1"></feOffset>
            <feColorMatrix values="0 0 0 0 0   0 0 0 0 0   0 0 0 0 0  0 0 0 0.5 0" type="matrix" in="shadowOffsetOuter1"></feColorMatrix>
        </filter>
        <path d="M34,-2.46070525e-15 L61,5.43456339e-17 L61,0 C62.1045695,1.75919934e-15 63,0.8954305 63,2 L63,29 L63,29 C63,30.1045695 62.1045695,31 61,31 L34,31 L34,31 C32.8954305,31 32,30.1045695 32,29 L32,2 L32,2 C32,0.8954305 32.8954305,-1.5734484e-15 34,-1.77635684e-15 Z" id="path-5"></path>
        <text id="text-6" font-family="FontAwesome" font-size="25" font-weight="normal" letter-spacing="-0.2617521" fill="#FFCC10">
            <tspan x="38" y="24"></tspan>
        </text>
        <filter x="-2.5%" y="-6.0%" width="105.0%" height="108.0%" filterUnits="objectBoundingBox" id="filter-7">
            <feOffset dx="0" dy="-1" in="SourceAlpha" result="shadowOffsetOuter1"></feOffset>
            <feColorMatrix values="0 0 0 0 0   0 0 0 0 0   0 0 0 0 0  0 0 0 0.5 0" type="matrix" in="shadowOffsetOuter1"></feColorMatrix>
        </filter>
    </defs>
    <g id="Page-1" stroke="none" stroke-width="1" fill="none" fill-rule="evenodd">
        <g id="Artboard-5">
            <g id="btn_close_mobile">
                <g id="Rectangle">
                    <use fill="url(#linearGradient-1)" fill-rule="evenodd" xlink:href="#path-2"></use>
                    <path stroke="#B90D00" stroke-width="1" d="M2,0.5 C1.17157288,0.5 0.5,1.17157288 0.5,2 L0.5,29 C0.5,29.8284271 1.17157288,30.5 2,30.5 L29,30.5 C29.8284271,30.5 30.5,29.8284271 30.5,29 L30.5,2 C30.5,1.17157288 29.8284271,0.5 29,0.5 L2,0.5 Z"></path>
                </g>
                <g id="" fill-opacity="1" fill="#FFFFFF">
                    <use filter="url(#filter-4)" xlink:href="#text-3"></use>
                    <use xlink:href="#text-3"></use>
                </g>
            </g>
            <g id="Rectangle">
                <use fill="url(#linearGradient-1)" fill-rule="evenodd" xlink:href="#path-5"></use>
                <path stroke="#B90D00" stroke-width="1" d="M34,0.5 C33.1715729,0.5 32.5,1.17157288 32.5,2 L32.5,29 C32.5,29.8284271 33.1715729,30.5 34,30.5 L61,30.5 C61.8284271,30.5 62.5,29.8284271 62.5,29 L62.5,2 C62.5,1.17157288 61.8284271,0.5 61,0.5 L34,0.5 Z"></path>
            </g>
            <g id="" fill-opacity="1" fill="#FFCC10">
                <use filter="url(#filter-7)" xlink:href="#text-6"></use>
                <use xlink:href="#text-6"></use>
            </g>
        </g>
    </g>
</svg>