<?xml version="1.0" encoding="utf-8"?>
<!-- Generator: Adobe Illustrator 21.0.2, SVG Export Plug-In . SVG Version: 6.00 Build 0)  -->
<svg version="1.1" id="Layer_1" xmlns="http://www.w3.org/2000/svg" xmlns:xlink="http://www.w3.org/1999/xlink" x="0px" y="0px"
	 viewBox="0 0 30.3 29.8" style="enable-background:new 0 0 30.3 29.8;" xml:space="preserve">
<style type="text/css">
	.st0{fill:#231F20;}
	.st1{fill:#FFCC10;}
	.st2{fill:#FFFFFF;}
</style>
<g>
	<g>
		<path class="st0" d="M15.4,17.3c-4.8,0-8.6-3.9-8.6-8.6S10.6,0,15.4,0S24,3.9,24,8.6S20.1,17.3,15.4,17.3z M15.4,2.5
			c-3.4,0-6.2,2.8-6.2,6.2s2.8,6.2,6.2,6.2s6.2-2.8,6.2-6.2S18.8,2.5,15.4,2.5z"/>
	</g>
	<g>
		<path class="st0" d="M30.3,29.8H0l0.2-1.4c0.8-5,3.7-9.3,7.7-11.7c0.6-0.4,1.3-0.2,1.7,0.4c0.3,0.6,0.2,1.3-0.4,1.7
			C6.2,20.6,4,23.6,3,27.3h24.3c-0.9-3.5-3.1-6.6-6-8.4c-0.6-0.4-0.7-1.1-0.4-1.7c0.4-0.6,1.1-0.7,1.7-0.4c3.9,2.5,6.6,6.7,7.4,11.5
			L30.3,29.8z"/>
	</g>
</g>
</svg>
