<?xml version="1.0" encoding="UTF-8"?>
<svg width="200px" height="29px" viewBox="0 0 200 29" version="1.1" xmlns="http://www.w3.org/2000/svg" xmlns:xlink="http://www.w3.org/1999/xlink">
    <!-- Generator: Sketch 46.2 (44496) - http://www.bohemiancoding.com/sketch -->
    <title>Page 1</title>
    <desc>Created with Sketch.</desc>
    <defs>
        <polygon id="path-1" points="53.5654253 0.0263492409 0.0577822565 0.0263492409 0.0577822565 16.9873472 53.5654253 16.9873472 53.5654253 0.0263492409"></polygon>
        <polygon id="path-3" points="199.922904 0.0259907478 0 0.0259907478 0 28.3911175 199.922904 28.3911175 199.922904 0.0259907478"></polygon>
    </defs>
    <g id="Page-1" stroke="none" stroke-width="1" fill="none" fill-rule="evenodd">
        <g id="Artboard-3">
            <g id="Page-1">
                <g id="Group-3" transform="translate(29.022082, 0.000000)">
                    <mask id="mask-2" fill="white">
                        <use xlink:href="#path-1"></use>
                    </mask>
                    <g id="Clip-2"></g>
                    <path d="M6.46431339,0.0263240664 L0.0577822565,8.85281627 L34.974337,8.85281627 C36.7399979,8.85281627 36.717984,9.52698761 35.8549743,10.7189971 C34.9787232,11.9245168 33.5125667,14.0094634 32.6186879,15.2372206 C32.1651692,15.8577704 31.3461872,16.9873472 34.0585271,16.9873472 L48.3377458,16.9873472 L52.5691251,11.1565287 C55.1934095,7.54466877 52.7981189,0.0307715498 43.4150816,0.0307715498 L6.46431339,0.0263240664 Z" id="Fill-1" fill="#D80613" mask="url(#mask-2)"></path>
                </g>
                <g id="Group-6">
                    <mask id="mask-4" fill="white">
                        <use xlink:href="#path-3"></use>
                    </mask>
                    <g id="Clip-5"></g>
                    <path d="M132.166964,18.9008526 C132.166964,18.9008526 130.82802,20.7416431 130.173977,21.6224315 C127.873729,24.7491847 129.906238,28.3868133 137.425875,28.3868133 L166.889983,28.3868133 L173.847739,18.9008526 L132.166964,18.9008526 Z M165.454505,0.025941084 L153.180743,16.751815 L133.738498,16.751815 L146.021007,0.025941084 L165.454505,0.025941084 Z M177.210281,18.9008526 L199.922904,18.9008526 L199.922904,20.9177843 L175.735363,20.9177843 L177.210281,18.9008526 Z M199.922904,28.3911175 L170.252525,28.3911175 L171.718696,26.3874295 L199.922904,26.3874295 L199.922904,28.3911175 Z M199.922904,24.6567272 L172.987343,24.6567272 L174.466716,22.6441824 L199.922904,22.6441824 L199.922904,24.6567272 Z M-3.30033003e-05,26.3874295 L24.2885809,26.3874295 L22.8179538,28.3911175 L-3.30033003e-05,28.3911175 L-3.30033003e-05,26.3874295 Z M-3.30033003e-05,18.9008526 L29.780165,18.9008526 L28.3007921,20.9133973 L-3.30033003e-05,20.9133973 L-3.30033003e-05,18.9008526 Z M-3.30033003e-05,22.6441824 L27.0321452,22.6441824 L25.5572277,24.6567272 L-3.30033003e-05,24.6567272 L-3.30033003e-05,22.6441824 Z M126.196914,18.9008526 L119.239076,28.3911175 L100.894274,28.3911175 L107.85203,18.9008526 L126.196914,18.9008526 Z M127.772739,16.751815 L82.8874257,16.751815 L95.1612706,0.025941084 L113.506073,0.025941084 L106.473729,9.6175203 L114.660528,9.6175203 L121.7017,0.025941084 L140.046584,0.025941084 L127.772739,16.751815 Z M99.6607756,18.9008526 L92.7030198,28.3911175 L74.3493894,28.3911175 L81.3071452,18.9008526 L99.6607756,18.9008526 Z M26.1849505,28.3911175 L39.0162211,10.8990959 L54.9378383,10.8990959 C56.6981518,10.8990959 56.6762046,11.5684818 55.8158086,12.7398865 L52.5673762,17.1789241 C52.115231,17.7911138 51.2987294,18.9053223 54.0028548,18.9053223 L75.3282673,18.9053223 C73.5592079,21.3449761 67.7998845,28.3911175 57.475132,28.3911175 L26.1849505,28.3911175 Z" id="Fill-4" fill="#D80613" mask="url(#mask-4)"></path>
                </g>
            </g>
        </g>
    </g>
</svg>